<svg width="227" height="100" viewBox="0 0 227 100" fill="none" xmlns="http://www.w3.org/2000/svg">
<g clip-path="url(#clip0_40_384)">
<path d="M150.874 30.0955C151.068 30.1807 150.774 30.0143 150.759 30.0021C150.703 29.9615 150.647 29.9128 150.595 29.8641C150.483 29.7585 150.398 29.6571 150.327 29.5353C150.118 29.1781 150.01 28.7437 149.973 28.3256C149.94 27.9481 149.966 27.5909 150.063 27.2296C150.159 26.8684 150.338 26.4746 150.498 26.2595C150.647 26.0606 150.818 25.886 150.993 25.7196C150.774 25.9307 151.124 25.6181 151.142 25.6059C151.22 25.5491 151.302 25.4963 151.38 25.4395C151.775 25.1635 151.042 25.5978 151.474 25.3867C151.559 25.3421 151.649 25.2974 151.734 25.2487C152.185 25.0092 151.299 25.4192 151.771 25.2284C151.909 25.1716 152.043 25.1147 152.177 25.062C152.665 24.8712 153.156 24.7007 153.651 24.5302C153.752 24.4937 154.068 24.38 153.599 24.5465C153.771 24.4856 153.946 24.4287 154.117 24.3719C154.433 24.2664 154.75 24.1568 155.066 24.0512C157.423 23.2637 159.798 22.529 162.181 21.847C163.372 21.5061 164.567 21.1732 165.766 20.8566C166.35 20.7023 166.935 20.5521 167.523 20.4019C167.817 20.3289 168.107 20.2558 168.402 20.1827C168.521 20.1543 168.636 20.1259 168.755 20.0975C168.815 20.0813 169.489 19.9189 169.168 19.996C168.815 20.0813 169.396 19.9432 169.407 19.9392C169.582 19.8986 169.76 19.8539 169.935 19.8133C170.289 19.7322 170.643 19.6469 170.993 19.5698C171.67 19.4155 172.348 19.2653 173.025 19.1192C174.41 18.8188 175.803 18.5387 177.195 18.2708C177.75 18.1653 178.331 17.9786 178.837 17.7066C179.086 17.5726 179.604 17.2885 179.715 16.9556C179.995 16.1316 178.215 16.3995 177.977 16.4442C172.538 17.4833 167.139 18.7701 161.801 20.3005C159.213 21.0433 156.637 21.847 154.083 22.7076C152.806 23.1379 151.503 23.5357 150.26 24.0756C149.016 24.6155 147.624 25.3177 146.678 26.4543C145.964 27.3149 145.573 28.354 145.658 29.5272C145.744 30.7003 146.373 31.5243 147.341 31.9587C147.699 32.121 148.369 32.0033 148.719 31.9384C149.262 31.8369 149.869 31.6542 150.36 31.3741C150.852 31.094 151.749 30.4811 150.874 30.0914V30.0955Z" fill="#FFF6ED"/>
<path d="M35.9632 33.5014C35.9074 33.7003 35.8329 33.8262 35.9558 33.5623C35.9856 33.5014 36.1121 33.3269 36.1121 33.2741C36.1121 33.3675 35.7883 33.6557 36.0116 33.4446C36.0861 33.3756 36.3728 33.0833 36.0489 33.3878C35.6505 33.7612 36.1196 33.3553 36.1159 33.3634C36.0973 33.4202 35.5165 33.676 35.8515 33.5298C35.967 33.4771 36.3541 33.3147 35.859 33.5055C35.3638 33.6963 35.7064 33.5664 35.818 33.5339C36.3392 33.3837 35.5277 33.5745 35.5277 33.5826C35.5351 33.5542 35.8143 33.5542 35.8404 33.5501C36.1308 33.5095 35.2187 33.5217 35.5016 33.5501C35.5947 33.5582 35.6915 33.5582 35.7883 33.5664C35.8851 33.5745 35.9744 33.5948 36.0675 33.6029C36.3281 33.6191 35.5388 33.4568 35.7845 33.5501C35.9558 33.6151 36.1419 33.6557 36.3169 33.7206C36.3914 33.749 36.652 33.8667 36.3169 33.7125C35.967 33.5542 36.2834 33.7044 36.3616 33.745C36.5105 33.8262 36.652 33.9195 36.7934 34.0169C36.9349 34.1144 37.0652 34.228 37.203 34.3376C37.5082 34.5852 36.9796 34.09 37.1285 34.2686C37.1918 34.3457 37.27 34.4107 37.3333 34.4838C37.8619 35.0561 38.2863 35.73 38.6325 36.4484L38.4203 36.0019C38.9751 37.1913 39.2915 38.4821 39.3511 39.8176L39.3325 39.3183C39.3548 40.0531 39.2915 40.7756 39.1538 41.4982C39.0756 41.9163 38.9788 42.3303 38.8708 42.7403C38.815 42.9514 38.7554 43.1584 38.6921 43.3654C38.6623 43.471 38.6288 43.5724 38.5953 43.678C38.4799 44.0555 38.6661 43.4831 38.5842 43.7226C37.9922 45.4072 37.2811 47.0309 36.5366 48.6425C35.9148 49.9901 35.2857 51.3338 34.7682 52.7342C34.1651 54.3782 33.6178 56.0506 33.1189 57.7393C31.1346 64.4574 29.7795 71.5651 29.6306 78.6364C29.5673 81.6159 29.3328 86.0892 32.3781 87.5018C34.7942 88.6222 37.5827 87.2014 39.124 85.1028C39.6601 84.3721 40.1217 83.5968 40.5424 82.7809C41.5736 80.7675 42.4374 78.6526 43.2973 76.5499C44.3025 74.0941 45.2705 71.622 46.2757 69.1621C47.1319 67.0675 47.9919 64.9567 49.0157 62.9514C49.2093 62.5739 49.4066 62.2004 49.6188 61.8391C49.7007 61.6971 49.7901 61.5591 49.8757 61.421C50.0916 61.076 49.805 61.5996 49.7082 61.6565C49.7603 61.6281 49.8124 61.5103 49.8534 61.4576C50.0842 61.145 50.3299 60.8446 50.5905 60.5605C50.7059 60.4306 50.8474 60.3129 50.9591 60.1789C50.6091 60.6132 50.6612 60.4387 50.8139 60.321C50.8288 60.3088 51.1527 60.049 51.1601 60.0612C51.1638 60.0652 50.5347 60.4265 50.9218 60.2195C51.108 60.118 51.3909 60.0896 50.5979 60.3372C50.7022 60.3047 50.9553 60.252 50.49 60.3494C49.7715 60.4955 50.8325 60.3738 50.181 60.39C49.5295 60.4062 50.6352 60.5118 49.8348 60.3575C49.3396 60.2641 49.5071 60.2844 49.6077 60.3169C49.8534 60.3981 48.9934 59.9962 49.2614 60.1545C49.4662 60.2804 49.2428 60.3291 49.0194 59.9151C49.0418 59.9556 49.0902 59.9841 49.1162 60.0246C49.1758 60.118 49.2354 60.2033 49.2838 60.3007L49.0716 59.8542C49.4327 60.6214 49.4774 61.5591 49.5146 62.4034L49.496 61.9041C49.6188 65.05 49.2279 68.196 49.1609 71.3419C49.1348 72.6287 49.0641 74.0494 49.4066 75.2956C50.0954 77.7961 52.8168 77.6216 54.6373 76.7488C56.1004 76.0506 57.3215 74.7679 58.4458 73.5582C59.5701 72.3486 60.5455 71.1958 61.5544 69.9739C64.2982 66.6413 66.8819 63.1503 69.3055 59.5375C71.5057 56.2577 73.6836 52.8073 75.1318 49.0443C75.3254 48.541 75.4967 48.0295 75.6642 47.5181C75.8318 47.0066 75.3887 46.4545 75.0537 46.2272C74.5622 45.8903 73.799 45.805 73.2406 45.8822C71.9413 46.0567 70.6867 46.6981 70.2288 48.0945C70.4745 47.3476 70.1878 48.196 70.1171 48.3867C70.0203 48.6506 69.9161 48.9104 69.8118 49.1661C69.5922 49.7019 69.3539 50.2296 69.1045 50.7533C68.5609 51.8939 67.9653 53.0021 67.3435 54.09C66.6511 55.2956 65.9251 56.4769 65.1731 57.6419C64.7859 58.2426 64.3913 58.8393 63.9892 59.432C63.8924 59.5781 63.7919 59.7202 63.6951 59.8663C63.643 59.9435 63.3377 60.3859 63.5648 60.0571C63.7919 59.7283 63.4419 60.2357 63.3973 60.3007C63.2856 60.4631 63.1739 60.6214 63.0585 60.7837C60.2626 64.7537 57.288 68.6465 54.0156 72.1659C53.7326 72.4704 53.4422 72.7748 53.1481 73.0671C53.029 73.1848 52.9099 73.2984 52.7907 73.4162C52.4668 73.7287 53.3008 72.9615 53.07 73.1604C53.0141 73.2091 52.962 73.2579 52.9061 73.3066C52.787 73.408 52.6642 73.5095 52.5413 73.607C52.4594 73.6719 52.37 73.7287 52.2881 73.7977C52.0499 73.9966 52.8503 73.5704 52.4259 73.7166C52.4557 73.7084 53.1444 73.5095 52.7051 73.607C53.0513 73.5298 53.23 73.5014 53.539 73.4974C54.0826 73.4933 53.9262 73.4974 53.8071 73.4933C53.5763 73.4771 54.5628 73.6719 54.3208 73.5948C54.0379 73.5014 54.9165 73.9439 54.6745 73.7571C54.4958 73.6232 54.991 74.1631 54.924 73.9926C54.8867 73.8992 54.7862 73.8059 54.7378 73.7084L54.95 74.1549C54.641 73.4933 54.6112 72.6774 54.5814 71.9467L54.6001 72.446C54.4847 69.3082 54.8867 66.1704 54.9426 63.0366C54.9649 61.6687 55.017 60.1789 54.6634 58.8475C54.5331 58.3482 54.3208 57.8124 53.9746 57.4511C52.8652 56.2901 51.1117 56.3713 49.7231 56.7894C45.7209 57.991 43.8297 62.4643 42.2289 66.215C40.6131 69.9983 39.1575 73.8586 37.5678 77.654C36.9014 79.2412 36.2238 80.8324 35.442 82.3587C35.1628 82.9067 34.8575 83.4263 34.5336 83.9418C34.8017 83.5116 34.8426 83.5116 34.6267 83.7957C34.422 84.0677 34.1986 84.3112 33.9789 84.567C33.7965 84.774 34.1874 84.3721 34.1762 84.3843C34.1018 84.4452 33.871 84.5873 34.2321 84.364C34.422 84.2463 34.6304 84.1529 34.8426 84.092C34.7682 84.1123 35.5425 83.9824 35.2708 84.0068C34.999 84.0311 35.7734 84.0068 35.6952 84.0068C35.6058 84.0068 35.3899 83.9581 35.8031 84.0352C36.2164 84.1123 36.0116 84.0758 35.9186 84.0433C35.9632 84.0596 36.3839 84.3194 36.1605 84.1489C36.101 84.1042 35.7548 83.8322 36.0228 84.0677C36.276 84.2869 36.0079 84.0271 35.9521 83.9581C35.7957 83.7551 35.6654 83.5319 35.5463 83.3005L35.7585 83.747C35.2596 82.6997 35.1181 81.5712 35.066 80.4062L35.0846 80.9055C34.9171 76.7163 35.3341 72.5028 36.0005 68.3786C36.6929 64.1002 37.6832 59.8704 38.9788 55.7624C39.057 55.5189 39.1351 55.2794 39.2133 55.0358C39.3287 54.6827 39.2059 55.0521 39.1873 55.1129C39.2319 54.9709 39.2803 54.8288 39.3287 54.6908C39.4851 54.2321 39.6452 53.7734 39.8127 53.3147C40.118 52.4785 40.453 51.6626 40.8179 50.8548C41.6667 48.9753 42.5714 47.1202 43.3085 45.184C44.0456 43.2477 44.8051 41.0516 44.7604 38.884C44.7195 36.8747 44.2318 35.0196 43.2341 33.3147C42.0688 31.3256 40.2036 30.0916 38.0816 29.7507C35.1554 29.2798 31.4474 30.8061 30.5166 34.09C30.3752 34.5934 30.7735 35.1414 31.1272 35.3809C31.6186 35.7178 32.3818 35.803 32.9402 35.7259C34.1911 35.5595 35.5537 34.9181 35.9521 33.5136L35.9632 33.5014Z" fill="#FFF6ED"/>
<path d="M37.5193 40.1638C39.3716 36.2842 39.0325 32.0943 36.7619 30.8055C34.4913 29.5167 31.149 31.617 29.2967 35.4967C27.4444 39.3764 27.7836 43.5663 30.0542 44.8551C32.3248 46.1439 35.667 44.0435 37.5193 40.1638Z" fill="#FFF6ED" stroke="#FFF6ED" stroke-miterlimit="10"/>
<path d="M81.751 52.8761C79.4466 51.9668 76.7363 53.3876 75.2509 55.3279C74.2904 56.5822 73.5309 58.0517 72.8198 59.4846C72.1087 60.9175 71.4237 62.5291 70.8653 64.1203C70.3069 65.7115 69.808 67.3921 69.6367 69.0969C69.5399 70.063 69.5251 71.0697 69.7373 72.0196C69.9718 73.0669 70.6196 73.6636 71.6024 73.7976C73.8734 74.098 75.8726 72.6163 77.6372 71.2646C78.6052 70.5217 79.5248 69.6571 80.247 68.6301C81.0735 67.4529 81.658 66.0769 82.1606 64.7089C83.4338 61.2301 84.3496 56.9313 82.5329 53.4769C82.0973 52.6529 80.8278 52.8802 80.1279 53.0994C79.6253 53.2577 79.078 53.4607 78.6759 53.8422C78.4935 54.0127 78.0542 54.4268 78.218 54.7393C79.5918 57.3454 79.3461 60.3573 78.5903 63.1379C78.218 64.51 77.7415 65.8698 77.1533 67.1526C77.0974 67.2743 77.0416 67.3961 76.982 67.5138C76.9522 67.5707 76.9262 67.6315 76.8964 67.6884C76.9076 67.664 76.982 67.5301 76.9113 67.664C76.7773 67.9076 76.6395 68.1471 76.4906 68.3785C76.23 68.7844 75.9396 69.1578 75.6269 69.5191C75.3626 69.8235 75.787 69.3689 75.5785 69.5719C75.5003 69.649 75.4221 69.7261 75.3439 69.8033C75.1504 69.9859 74.953 70.1605 74.7483 70.3269C74.5621 70.4812 74.3723 70.6313 74.1824 70.7775C74.0633 70.8668 73.9441 70.9561 73.825 71.0454C73.7729 71.0819 73.7133 71.1185 73.6649 71.1631C73.7543 71.0779 73.9292 70.9764 73.7319 71.1144C73.475 71.2971 73.2182 71.4797 72.9538 71.6502C72.9203 71.6705 72.7863 71.7314 72.7714 71.7639C72.7751 71.7558 73.1549 71.5893 72.9389 71.6746C72.5815 71.8207 73.7319 71.4716 73.6165 71.4879C73.6686 71.4797 74.402 71.4391 74.3983 71.5406C74.3983 71.5772 74.134 71.0982 74.1042 70.9886C73.9925 70.5867 73.933 70.1605 73.9032 69.7424C73.7952 68.212 74.1712 66.6614 74.5845 65.2122C74.9754 63.8524 75.4593 62.525 76.0029 61.2301C76.6134 59.7728 77.2612 58.413 78.0319 57.0896C78.3855 56.4848 78.7541 55.88 79.1711 55.3239C79.2344 55.2386 79.2977 55.1574 79.3609 55.0803C79.3796 55.06 79.5732 54.8286 79.4764 54.9382C79.3721 55.0559 79.5471 54.8692 79.5508 54.8652C79.6253 54.7962 79.7035 54.7271 79.7816 54.6622C79.8375 54.6135 80.005 54.5526 79.8226 54.6257C79.7035 54.6744 79.3312 54.8489 79.6327 54.7434C79.2753 54.8692 78.9365 54.9707 78.5642 54.9788C78.4488 54.9788 77.9686 54.8773 78.2627 54.9951C79.1971 55.3644 80.4741 55.0356 81.3043 54.4958C81.7771 54.1873 82.7116 53.2739 81.7399 52.8924L81.751 52.8761Z" fill="#FFF6ED"/>
<path d="M107.763 62.1437C108.984 59.2007 110.302 56.3065 111.78 53.5056C113.258 50.7047 114.807 48.1027 116.854 45.8863L112.718 46.5845C112.782 48.5857 113.109 50.5991 113.4 52.5719C113.69 54.5447 113.991 56.5541 114.379 58.5228C114.509 59.1845 115.808 59.0424 116.188 58.9693C117.041 58.811 117.886 58.4863 118.519 57.8246C119.308 56.9965 119.889 55.9371 120.421 54.906C121.069 53.6517 121.612 52.3406 122.122 51.0132C123.049 48.602 123.831 46.1299 124.609 43.6578L120.309 44.6442C121.75 47.9484 122.074 51.7235 123.515 55.0278C123.872 55.8478 125.29 55.5352 125.905 55.3444C126.407 55.1861 126.955 54.9872 127.364 54.6219C127.554 54.4514 127.971 54.0901 127.833 53.7694C126.392 50.4652 126.069 46.6901 124.628 43.3858C124.304 42.643 123.09 42.8743 122.528 43.0042C122.07 43.1098 121.59 43.26 121.18 43.5198C120.86 43.7187 120.454 43.9703 120.328 44.3763C119.568 46.8037 118.798 49.2312 117.893 51.6018C117.398 52.8926 116.869 54.1753 116.255 55.4012C116.181 55.5474 116.106 55.6976 116.028 55.8396C116.006 55.8802 115.771 56.3024 115.905 56.071C115.775 56.2983 115.641 56.5216 115.499 56.7408C115.22 57.1751 114.915 57.5892 114.565 57.9586L118.701 57.2604C118.314 55.2916 118.012 53.2985 117.722 51.3095C117.431 49.3205 117.104 47.3233 117.041 45.3221C117.022 44.6645 115.518 44.8228 115.231 44.8756C114.386 45.0298 113.519 45.3505 112.901 46.0203C110.745 48.3544 109.092 51.2243 107.577 54.0779C106.062 56.9316 104.725 59.8664 103.485 62.8581C103.351 63.1829 103.657 63.4264 103.88 63.5238C104.278 63.6943 104.87 63.6578 105.276 63.5807C106.099 63.4305 107.383 63.0773 107.767 62.1437H107.763Z" fill="#FFF6ED"/>
<path d="M158.956 13.85C156.924 19.878 155.148 26.0197 153.636 32.2263C152.881 35.3276 152.196 38.4532 151.656 41.6073C151.22 44.1524 150.103 48.6298 153.365 49.466C155.673 50.0587 158.208 48.6623 160.111 47.343C161.775 46.1902 163.238 44.7694 164.481 43.1011C165.125 42.2365 163.934 41.7494 163.32 41.7494C162.296 41.7494 161.134 42.1309 160.468 43.024C160.356 43.1742 160.241 43.3243 160.125 43.4745C160.077 43.5395 160.025 43.6004 159.973 43.6613C160.018 43.6044 160.163 43.4461 159.943 43.6978C159.697 43.982 159.44 44.2539 159.176 44.5178C158.912 44.7816 158.64 45.0333 158.361 45.2769C158.242 45.3824 158.119 45.4798 157.996 45.5813C157.717 45.8127 157.959 45.6097 158.015 45.5691C157.929 45.63 157.847 45.695 157.761 45.7599C157.464 45.9791 157.162 46.1821 156.849 46.3769C156.715 46.4581 156.581 46.5393 156.447 46.6205C156.105 46.8275 156.473 46.588 156.525 46.5839C156.447 46.5921 156.324 46.6895 156.25 46.7301C156.086 46.8153 155.919 46.8965 155.751 46.9696C155.695 46.9939 155.569 47.0223 155.528 47.067C155.725 46.864 155.885 46.9574 155.632 47.0142C155.632 47.0142 156.082 46.933 155.826 46.9696C155.587 47.002 155.971 46.9615 155.982 46.9615C155.974 46.9615 156.231 46.9696 156.257 47.0305C156.239 46.9939 156.056 46.929 156.012 46.9046C156.231 47.0223 155.978 46.864 155.904 46.7788C155.863 46.7301 155.669 46.4378 155.773 46.6286C155.639 46.381 155.565 46.0846 155.517 45.8046C155.397 45.1429 155.423 44.7735 155.494 44.1281C155.643 42.7885 155.878 41.453 156.12 40.1297C157.199 34.1261 158.729 28.2158 160.416 22.3867C161.306 19.3179 162.248 16.2693 163.268 13.2493C163.39 12.888 163.089 12.5632 162.832 12.4252C162.434 12.2101 161.834 12.202 161.414 12.271C160.528 12.413 159.303 12.8311 158.956 13.85Z" fill="#FFF6ED"/>
<path d="M191.886 20.8445C190.37 21.6889 188.889 22.6103 187.474 23.6454C186.718 24.1975 185.962 24.7617 185.274 25.4072C184.693 25.9552 184.056 26.7792 184.019 27.656C183.915 29.9617 186.77 30.0915 188.263 30.2174C188.673 30.2499 189.078 30.2783 189.488 30.3189C189.663 30.3351 189.834 30.3554 190.009 30.3798C190.058 30.3879 190.422 30.4406 190.195 30.4041C189.998 30.3716 190.344 30.4366 190.381 30.4447C190.568 30.4853 190.75 30.534 190.932 30.5908C191.018 30.6193 191.1 30.6477 191.186 30.6801C191.215 30.6923 191.431 30.7735 191.234 30.6923C191.037 30.6111 191.245 30.7004 191.279 30.7167C191.361 30.7613 191.439 30.8019 191.521 30.8466C191.681 30.9359 191.833 31.0374 191.982 31.1429C192.057 31.1957 192.302 31.3986 192.109 31.2241C192.228 31.3296 192.336 31.4473 192.44 31.5691C192.544 31.6909 192.641 31.8127 192.731 31.9466C192.768 32.0035 192.801 32.0603 192.839 32.1171C192.958 32.3079 192.742 31.8208 192.883 32.1983C193.155 32.9087 193.155 33.3471 192.947 34.0777C192.947 34.0737 192.857 34.3254 192.906 34.1995C192.961 34.0493 192.827 34.37 192.816 34.3944C192.746 34.5486 192.671 34.6988 192.593 34.849C192.396 35.2143 192.172 35.5634 191.941 35.9044C191.897 35.9694 191.848 36.0384 191.804 36.1033C191.644 36.3347 191.964 35.9004 191.789 36.1196C191.673 36.2657 191.562 36.4199 191.446 36.5661C191.215 36.8583 190.973 37.1425 190.724 37.4185C190.475 37.6946 190.218 37.9625 189.957 38.2223C189.845 38.3359 189.73 38.4455 189.615 38.5511C189.518 38.6404 189.101 39.0503 189.414 38.7418C188.889 39.2574 188.271 39.6958 187.682 40.122C187.064 40.5726 186.428 40.9947 185.78 41.3925C185.72 41.4291 185.631 41.4656 185.579 41.5143C185.586 41.5062 185.936 41.3073 185.724 41.425C185.564 41.5143 185.408 41.6117 185.248 41.701C184.898 41.9 184.544 42.0948 184.19 42.2815C180.829 44.0676 177.295 45.4356 173.963 47.2866C173.543 47.518 173.066 47.8224 172.828 48.2933C172.657 48.6302 172.608 49.1051 172.869 49.4137C173.543 50.2011 174.965 50.0347 175.758 49.5963C178.725 47.9523 181.849 46.6858 184.868 45.1677C187.887 43.6495 190.579 41.9852 193.025 39.7039C194.183 38.6282 195.203 37.4023 196.092 36.0627C196.982 34.7232 197.771 33.0183 197.321 31.3215C196.938 29.8723 195.765 28.7642 194.533 28.1756C192.876 27.3881 191.1 27.3353 189.328 27.1567C189.097 27.1323 188.863 27.0958 188.632 27.0715C188.416 27.0471 188.654 27.0755 188.688 27.0836C188.583 27.0593 188.472 27.0146 188.367 27.0065C188.192 26.9903 188.442 27.0187 188.464 27.0674L188.349 27.0024L188.446 27.108C188.505 26.836 188.263 27.0796 188.397 27.108C188.352 27.0999 188.36 26.8604 188.352 27.0958C188.352 27.0106 188.375 26.9091 188.401 26.8279C188.349 26.9984 188.364 26.9213 188.438 26.8279C188.501 26.7467 188.635 26.6331 188.431 26.832C188.501 26.7629 188.568 26.6818 188.635 26.6046C188.792 26.4301 188.654 26.4666 188.58 26.6493C188.609 26.5762 188.792 26.4788 188.851 26.4301C189.034 26.284 189.216 26.1419 189.399 25.9998C190.132 25.4315 190.888 24.8916 191.658 24.3842C192.02 24.1447 192.384 23.9133 192.753 23.686C192.839 23.6333 193.051 23.4059 192.883 23.6089C192.738 23.7875 192.928 23.5845 193.014 23.5358C193.237 23.4059 193.46 23.2801 193.687 23.1543C194.108 22.9188 194.585 22.6184 194.823 22.1476C194.994 21.8106 195.043 21.3357 194.782 21.0272C194.112 20.2397 192.686 20.4021 191.893 20.8445H191.886Z" fill="#FFF6ED"/>
<path d="M92.5811 52.6119C92.6034 52.4698 92.6257 52.3196 92.6741 52.1816C92.5289 52.5835 92.8863 51.8163 92.7225 52.1085C92.5773 52.3683 93.0502 51.796 92.7709 52.0395C92.6481 52.1451 92.6555 52.141 92.797 52.0355C92.5103 52.1978 92.4694 52.2263 92.6779 52.1288L89.7926 51.9624C89.7033 51.8163 89.8298 52.0842 89.8522 52.1613C89.8522 52.1613 89.882 52.3967 89.8745 52.2628C89.8634 52.1085 89.8596 52.417 89.8559 52.4495C89.8373 52.6078 89.8038 52.7621 89.7666 52.9123C89.7479 52.9894 89.7256 53.0665 89.6995 53.1436C89.6735 53.2208 89.6176 53.371 89.6772 53.2127C89.4017 53.9433 89.0927 54.6578 88.8247 55.3925C88.2364 56.9959 87.7115 58.6196 87.2759 60.2798C86.8664 61.8345 86.5351 63.4136 86.2745 65.0089C86.1442 65.8045 86.0362 66.6042 85.9431 67.4079C85.8501 68.2116 85.6416 69.2102 86.2224 69.8678C87.1121 70.8705 88.7353 70.5823 89.7852 70.1073C90.6563 69.7095 91.3302 69.0641 91.8923 68.2522C92.7076 67.071 93.4671 65.8491 94.2266 64.6273C95.7195 62.2283 97.1788 59.7968 98.7797 57.483C99.0105 57.1501 99.2413 56.8213 99.4759 56.4966C99.595 56.3302 99.461 56.521 99.4424 56.5412C99.5057 56.456 99.5689 56.3708 99.6322 56.2815C99.7439 56.1313 99.8556 55.9811 99.971 55.8349C100.44 55.222 100.924 54.6212 101.423 54.0407C101.922 53.4603 102.477 52.8554 103.035 52.2993C103.296 52.0395 103.56 51.7838 103.832 51.5362C103.91 51.4631 103.988 51.3941 104.066 51.3251C104.23 51.1749 104.144 51.2317 104.036 51.3495C104.178 51.1993 104.36 51.0734 104.517 50.9435L101.147 51.0653C101.08 50.9313 101.241 51.3982 101.255 51.4631C101.278 51.5646 101.33 51.9056 101.33 51.9015C101.33 51.8975 101.308 52.2384 101.293 52.344C101.278 52.4495 101.255 52.551 101.229 52.6525C101.177 52.8351 101.17 52.8554 101.214 52.7134C100.314 54.9541 104.628 54.5887 105.276 52.9853C105.812 51.6498 105.768 50.4158 105.135 49.1372C104.896 48.6541 104.089 48.6176 103.672 48.6297C103.031 48.646 102.29 48.8246 101.769 49.2589C97.5586 52.7499 94.4835 57.4018 91.5461 62.143C90.8276 63.2999 90.1165 64.4609 89.3868 65.6137C89.0369 66.1617 88.6869 66.7097 88.3295 67.2536C88.1508 67.5256 87.9758 67.7976 87.7897 68.0614C88.095 67.6271 87.7711 68.0939 87.719 68.0899C87.9386 67.9031 87.9647 67.8747 87.7934 68.0006C88.2439 67.6758 88.7576 67.5378 89.331 67.5784L90.1724 67.9153C90.2208 68.0614 90.2245 68.0452 90.1761 67.8625C90.1463 68.1061 90.2208 67.5256 90.2133 67.5784C90.2505 67.209 90.2915 66.8356 90.3362 66.4662C90.4255 65.7274 90.5335 64.9886 90.6601 64.2539C90.9169 62.7235 91.2445 61.2053 91.6392 59.7115C92.071 58.0838 92.5848 56.456 93.1469 54.9906C93.7463 53.4278 94.785 51.6701 93.7798 50.0464C93.5639 49.6973 92.931 49.5471 92.5885 49.5309C92.0003 49.5065 91.4381 49.6405 90.8909 49.88C89.6251 50.4402 88.4822 51.6052 88.2439 53.1233C88.0726 54.2072 89.4613 54.4385 90.1575 54.3411C90.9988 54.2234 92.4061 53.7201 92.5811 52.6241V52.6119Z" fill="#FFF6ED"/>
<path d="M199 36.7565C198.725 35.6036 200.106 33.2127 201.532 32.0599C203.099 30.7934 205.199 31.4226 205.843 32.7946C206.487 34.1707 205.567 35.9974 203.866 37.0366C202.157 38.0798 199.365 38.2787 199 36.7565Z" fill="#FFF6ED" stroke="#FFF6ED" stroke-miterlimit="10"/>
<path d="M169.999 35.9369C171.882 35.4011 173.696 34.5933 175.378 33.5257C177.061 32.4581 178.889 31.2323 179.715 29.3244C180.088 28.4638 180.259 27.3841 179.961 26.4626C179.6 25.3544 178.736 24.6157 177.72 24.2869C175.468 23.5602 173.066 24.3437 171.149 25.6954C168.111 27.8387 166.328 31.626 165.479 35.3565C165.107 36.9923 164.783 38.8393 165.185 40.5077C165.736 42.7971 167.739 43.7348 169.768 43.6292C171.968 43.5156 174.09 42.2572 175.911 40.9948C177.605 39.8217 179.146 38.34 180.445 36.6717C180.709 36.3347 180.925 35.872 180.814 35.4133C180.702 34.9546 180.296 34.642 179.917 34.5203C178.919 34.2036 177.56 34.5203 176.864 35.4133C176.417 35.9897 175.94 36.5377 175.438 37.0573C175.363 37.1344 175.285 37.2075 175.211 37.2846C175.047 37.4551 175.293 37.2115 175.304 37.1994C175.207 37.3211 175.066 37.4226 174.954 37.5241C174.678 37.7758 174.395 38.0153 174.105 38.2467C173.815 38.478 173.521 38.7013 173.219 38.9124C173.089 39.0017 172.958 39.091 172.828 39.1803C172.783 39.2128 172.553 39.3467 172.802 39.2006C173.092 39.0301 172.698 39.2615 172.642 39.298C172.352 39.4726 172.054 39.6431 171.756 39.8014C171.618 39.8744 171.477 39.9475 171.339 40.0165C171.272 40.049 171.205 40.0815 171.138 40.1139C171.093 40.1342 170.65 40.3128 171.015 40.1789C171.361 40.049 170.896 40.2195 170.81 40.2438C170.658 40.2925 170.46 40.3088 170.315 40.3778C170.319 40.3778 170.788 40.3169 170.546 40.3291C170.475 40.3291 170.405 40.3453 170.334 40.3534C169.973 40.4021 170.408 40.3412 170.468 40.3656C170.397 40.3372 170.27 40.3494 170.192 40.3412C169.842 40.3088 170.568 40.4265 170.096 40.2925C169.913 40.2398 170.177 40.3291 170.2 40.3453C170.148 40.3007 170.081 40.2682 170.025 40.2235C169.969 40.1789 169.921 40.1383 169.865 40.0936C170.118 40.2885 169.958 40.1951 169.902 40.1099C169.827 39.9921 169.738 39.8338 169.649 39.7324C169.545 39.6146 169.664 39.777 169.682 39.8176C169.649 39.7324 169.615 39.6512 169.589 39.5659C169.548 39.436 169.511 39.3061 169.481 39.1722C169.444 39.0139 169.418 38.8515 169.399 38.6891C169.384 38.5795 169.384 38.1736 169.377 38.474C169.392 37.7717 169.444 37.0979 169.556 36.4038C169.675 35.669 169.824 34.9384 170.014 34.2199C170.055 34.0616 170.099 33.8992 170.144 33.7409C170.222 33.4689 170.073 33.9601 170.159 33.6962C170.185 33.6191 170.207 33.5379 170.233 33.4608C170.352 33.0955 170.483 32.7382 170.624 32.3851C170.896 31.7072 171.209 31.0455 171.57 30.4204C171.663 30.258 171.76 30.0997 171.856 29.9414C171.689 30.2174 171.871 29.9211 171.946 29.8156C172.158 29.5111 172.381 29.2148 172.62 28.9347C172.739 28.7926 172.862 28.6546 172.984 28.5207C173.037 28.4638 173.092 28.407 173.148 28.3502C173.275 28.2122 173.238 28.131 173.107 28.3826C173.245 28.1107 173.733 27.8549 173.964 27.6845C174.299 27.4368 173.651 27.8468 174.012 27.652C174.172 27.5667 174.328 27.4774 174.492 27.4044C174.559 27.3719 174.637 27.3516 174.701 27.311C174.69 27.3151 174.258 27.4531 174.496 27.4003C174.567 27.3841 174.641 27.3557 174.712 27.3354C175.177 27.1811 174.362 27.3638 174.634 27.3394C174.783 27.3272 174.928 27.311 175.077 27.2988C175.363 27.2704 174.69 27.2501 174.969 27.3069C175.04 27.3232 175.121 27.3232 175.192 27.3313C175.553 27.3678 174.902 27.2379 175.252 27.3557C175.553 27.4571 175.296 27.3638 175.233 27.3232C175.315 27.3719 175.393 27.4247 175.471 27.4815C175.698 27.6439 175.412 27.3678 175.564 27.5992C175.725 27.8428 175.617 27.6642 175.587 27.5911C175.613 27.656 175.635 27.725 175.654 27.7941C175.676 27.8752 175.751 28.3299 175.728 28.0133C175.739 28.1837 175.721 28.3624 175.695 28.5288C175.684 28.6018 175.661 28.6749 175.654 28.748C175.684 28.4598 175.672 28.6952 175.628 28.8129C175.557 28.9834 175.471 29.1458 175.378 29.3082C175.568 28.9753 175.248 29.4502 175.174 29.5395C175.121 29.6004 175.062 29.6532 175.013 29.7141C174.861 29.9049 175.285 29.4827 174.999 29.7344C174.384 30.2783 173.733 30.7614 173.059 31.212C173.018 31.2404 172.791 31.4027 173.022 31.2363C173.286 31.0455 172.899 31.3053 172.843 31.3419C172.679 31.4393 172.512 31.5326 172.348 31.626C171.968 31.8371 171.577 32.0319 171.186 32.2105C171.015 32.2877 170.84 32.3648 170.665 32.4379C170.609 32.4622 170.349 32.5678 170.646 32.45C170.985 32.3161 170.546 32.4866 170.472 32.5109C170.066 32.6571 169.656 32.787 169.243 32.9047C168.74 33.0467 168.178 33.3634 167.828 33.7977C167.583 34.1022 167.326 34.6299 167.46 35.0561C167.802 36.144 169.146 36.1886 169.991 35.9451L169.999 35.9369Z" fill="#FFF6ED"/>
<path d="M140.301 37.4303C138.097 37.0528 136.355 38.5345 134.992 40.2231C133.972 41.4896 133.079 42.8576 132.263 44.2864C131.519 45.5935 130.864 46.9534 130.32 48.3701C130.037 49.1048 129.784 49.8517 129.561 50.6108C129.319 51.4267 129.039 52.2791 128.946 53.1316C128.835 54.1626 129.147 55.1856 129.903 55.8391C130.659 56.4927 131.545 56.6226 132.438 56.6307C134.043 56.6428 135.54 55.8148 136.865 54.9095C139.441 53.1559 141.481 50.7366 143.041 47.9073C144.854 44.6274 145.804 40.8117 146.247 37.0366L141.865 37.3492L142.036 41.8468C142.092 43.3163 142.099 44.8223 142.412 46.2592C143.06 49.2306 145.305 51.4186 148.179 51.2684C149.106 51.2197 150.506 50.4809 150.543 49.3078C150.58 48.1346 149.474 47.611 148.521 47.6597C148.082 47.6841 148.856 47.7287 148.614 47.6719C148.588 47.6678 148.294 47.6435 148.291 47.615C148.291 47.6232 148.76 47.7774 148.354 47.6029C148.313 47.5866 148.272 47.5663 148.231 47.546C148.108 47.4851 148.149 47.5136 148.358 47.6313C148.331 47.5298 147.948 47.339 147.859 47.2619C147.769 47.1848 147.684 47.1036 147.602 47.0183C147.773 47.1929 147.71 47.136 147.591 46.9818C147.457 46.8113 147.337 46.6286 147.226 46.4419C147.151 46.3161 147.088 46.1862 147.025 46.0563C147.11 46.2349 147.069 46.1659 147.021 46.0238C146.827 45.4596 146.686 44.8872 146.597 44.2905C146.556 44.0226 146.53 43.7506 146.504 43.4827C146.492 43.3569 146.492 43.3609 146.504 43.503L146.492 43.3203C146.485 43.1701 146.477 43.0159 146.47 42.8657C146.44 42.2568 146.422 41.6439 146.399 41.0309L146.247 37.0325C146.15 34.4711 142.122 35.1287 141.865 37.3451C141.697 38.7861 141.459 40.2231 141.109 41.6236C141.198 41.2623 141.049 41.8347 141.046 41.8549C140.997 42.0295 140.949 42.204 140.901 42.3745C140.815 42.6627 140.729 42.9509 140.636 43.2351C140.394 43.9739 140.119 44.7005 139.813 45.4109C139.557 45.9995 139.277 46.5759 138.976 47.1401C138.939 47.2051 138.674 47.6678 138.916 47.2497C138.834 47.3877 138.756 47.5217 138.671 47.6556C138.503 47.9235 138.332 48.1915 138.153 48.4513C137.796 48.9708 137.416 49.4742 137.014 49.9491C136.984 49.9857 136.545 50.554 136.496 50.5337L136.656 50.3672C136.586 50.4403 136.511 50.5174 136.441 50.5905C136.295 50.7366 136.146 50.8787 135.997 51.0208C135.584 51.4064 135.152 51.7636 134.702 52.0965C134.587 52.1817 134.456 52.3035 134.33 52.3603C134.843 52.1249 134.423 52.2954 134.296 52.3725C133.998 52.5592 133.693 52.7419 133.377 52.9002C133.302 52.9367 132.937 53.0829 133.328 52.9367C133.719 52.7906 133.332 52.9286 133.261 52.953C133.149 52.9895 133.008 53.0017 132.904 53.0504L133.25 52.9855C133.172 52.9976 133.09 53.0057 133.012 53.0098C132.591 53.0707 133.514 53.091 133.109 53.0179C132.703 52.9449 133.559 53.2046 133.187 53.0463C132.844 52.9002 133.481 53.2615 133.287 53.1032C133.183 53.0179 133.224 53.0666 133.41 53.2534C133.362 53.1925 133.321 53.1316 133.28 53.0626C133.488 53.367 133.306 53.091 133.287 52.9164C133.332 53.3061 133.328 52.7906 133.336 52.7297C133.358 52.5633 133.395 52.3969 133.429 52.2345C133.537 51.6987 133.328 52.5836 133.477 52.0478C133.656 51.3942 133.846 50.7447 134.065 50.1034C134.501 48.8247 135.022 47.5785 135.621 46.381C135.77 46.0806 135.927 45.7843 136.087 45.492C136.165 45.3459 136.247 45.1998 136.329 45.0536C136.098 45.4596 136.455 44.8466 136.496 44.7776C136.869 44.1606 137.267 43.5598 137.684 42.9753C138.101 42.3908 138.537 41.8225 138.998 41.2826C139.08 41.1852 139.318 40.7833 139.054 41.2055C139.102 41.1283 139.445 40.7792 139.527 40.7874L139.307 40.9376C139.531 40.8198 139.478 40.832 139.143 40.97C139.382 40.901 139.322 40.9051 138.968 40.9822C138.648 40.9538 138.604 40.9538 138.838 40.9903C139.825 41.1608 141.262 40.6209 141.641 39.5209C142.021 38.4208 141.28 37.5927 140.297 37.4263L140.301 37.4303Z" fill="#FFF6ED"/>
</g>
<defs>
<clipPath id="clip0_40_384">
<rect width="227" height="100" rx="15" fill="white"/>
</clipPath>
</defs>
</svg>
